<svg width="130" height="41" viewBox="0 0 130 41" fill="none" xmlns="http://www.w3.org/2000/svg">
<path d="M13.1094 22.3828H14.6094C14.5312 23.1016 14.3255 23.7448 13.9922 24.3125C13.6589 24.8802 13.1875 25.3307 12.5781 25.6641C11.9688 25.9922 11.2083 26.1562 10.2969 26.1562C9.63021 26.1562 9.02344 26.0312 8.47656 25.7812C7.9349 25.5312 7.46875 25.1771 7.07812 24.7188C6.6875 24.2552 6.38542 23.7005 6.17188 23.0547C5.96354 22.4036 5.85938 21.6797 5.85938 20.8828V19.75C5.85938 18.9531 5.96354 18.2318 6.17188 17.5859C6.38542 16.9349 6.6901 16.3776 7.08594 15.9141C7.48698 15.4505 7.96875 15.0938 8.53125 14.8438C9.09375 14.5938 9.72656 14.4688 10.4297 14.4688C11.2891 14.4688 12.0156 14.6302 12.6094 14.9531C13.2031 15.276 13.6641 15.724 13.9922 16.2969C14.3255 16.8646 14.5312 17.5234 14.6094 18.2734H13.1094C13.0365 17.7422 12.901 17.2865 12.7031 16.9062C12.5052 16.5208 12.224 16.224 11.8594 16.0156C11.4948 15.8073 11.0182 15.7031 10.4297 15.7031C9.92448 15.7031 9.47917 15.7995 9.09375 15.9922C8.71354 16.1849 8.39323 16.4583 8.13281 16.8125C7.8776 17.1667 7.6849 17.5911 7.55469 18.0859C7.42448 18.5807 7.35938 19.1302 7.35938 19.7344V20.8828C7.35938 21.4401 7.41667 21.9635 7.53125 22.4531C7.65104 22.9427 7.83073 23.3724 8.07031 23.7422C8.3099 24.112 8.61458 24.4036 8.98438 24.6172C9.35417 24.8255 9.79167 24.9297 10.2969 24.9297C10.9375 24.9297 11.4479 24.8281 11.8281 24.625C12.2083 24.4219 12.4948 24.1302 12.6875 23.75C12.8854 23.3698 13.026 22.9141 13.1094 22.3828ZM16.0625 21.8672V21.6875C16.0625 21.0781 16.151 20.513 16.3281 19.9922C16.5052 19.4661 16.7604 19.0104 17.0938 18.625C17.4271 18.2344 17.8307 17.9323 18.3047 17.7188C18.7786 17.5 19.3099 17.3906 19.8984 17.3906C20.4922 17.3906 21.026 17.5 21.5 17.7188C21.9792 17.9323 22.3854 18.2344 22.7188 18.625C23.0573 19.0104 23.3151 19.4661 23.4922 19.9922C23.6693 20.513 23.7578 21.0781 23.7578 21.6875V21.8672C23.7578 22.4766 23.6693 23.0417 23.4922 23.5625C23.3151 24.0833 23.0573 24.5391 22.7188 24.9297C22.3854 25.3151 21.9818 25.6172 21.5078 25.8359C21.0391 26.0495 20.5078 26.1562 19.9141 26.1562C19.3203 26.1562 18.7865 26.0495 18.3125 25.8359C17.8385 25.6172 17.4323 25.3151 17.0938 24.9297C16.7604 24.5391 16.5052 24.0833 16.3281 23.5625C16.151 23.0417 16.0625 22.4766 16.0625 21.8672ZM17.5078 21.6875V21.8672C17.5078 22.2891 17.5573 22.6875 17.6562 23.0625C17.7552 23.4323 17.9036 23.7604 18.1016 24.0469C18.3047 24.3333 18.5573 24.5599 18.8594 24.7266C19.1615 24.888 19.513 24.9688 19.9141 24.9688C20.3099 24.9688 20.6562 24.888 20.9531 24.7266C21.2552 24.5599 21.5052 24.3333 21.7031 24.0469C21.901 23.7604 22.0495 23.4323 22.1484 23.0625C22.2526 22.6875 22.3047 22.2891 22.3047 21.8672V21.6875C22.3047 21.2708 22.2526 20.8776 22.1484 20.5078C22.0495 20.1328 21.8984 19.8021 21.6953 19.5156C21.4974 19.224 21.2474 18.9948 20.9453 18.8281C20.6484 18.6615 20.2995 18.5781 19.8984 18.5781C19.5026 18.5781 19.1536 18.6615 18.8516 18.8281C18.5547 18.9948 18.3047 19.224 18.1016 19.5156C17.9036 19.8021 17.7552 20.1328 17.6562 20.5078C17.5573 20.8776 17.5078 21.2708 17.5078 21.6875ZM27.0156 19.3516V26H25.5703V17.5469H26.9375L27.0156 19.3516ZM26.6719 21.4531L26.0703 21.4297C26.0755 20.8516 26.1615 20.3177 26.3281 19.8281C26.4948 19.3333 26.7292 18.9036 27.0312 18.5391C27.3333 18.1745 27.6927 17.8932 28.1094 17.6953C28.5312 17.4922 28.9974 17.3906 29.5078 17.3906C29.9245 17.3906 30.2995 17.4479 30.6328 17.5625C30.9661 17.6719 31.25 17.849 31.4844 18.0938C31.724 18.3385 31.9062 18.6562 32.0312 19.0469C32.1562 19.4323 32.2188 19.9036 32.2188 20.4609V26H30.7656V20.4453C30.7656 20.0026 30.7005 19.6484 30.5703 19.3828C30.4401 19.112 30.25 18.9167 30 18.7969C29.75 18.6719 29.4427 18.6094 29.0781 18.6094C28.7188 18.6094 28.3906 18.6849 28.0938 18.8359C27.8021 18.987 27.5495 19.1953 27.3359 19.4609C27.1276 19.7266 26.9635 20.0312 26.8438 20.375C26.7292 20.7135 26.6719 21.0729 26.6719 21.4531ZM37.9531 17.5469V18.6562H33.3828V17.5469H37.9531ZM34.9297 15.4922H36.375V23.9062C36.375 24.1927 36.4193 24.4089 36.5078 24.5547C36.5964 24.7005 36.7109 24.7969 36.8516 24.8438C36.9922 24.8906 37.1432 24.9141 37.3047 24.9141C37.4245 24.9141 37.5495 24.9036 37.6797 24.8828C37.8151 24.8568 37.9167 24.8359 37.9844 24.8203L37.9922 26C37.8776 26.0365 37.7266 26.0703 37.5391 26.1016C37.3568 26.138 37.1354 26.1562 36.875 26.1562C36.5208 26.1562 36.1953 26.0859 35.8984 25.9453C35.6016 25.8047 35.3646 25.5703 35.1875 25.2422C35.0156 24.9089 34.9297 24.4609 34.9297 23.8984V15.4922ZM44.6328 24.5547V20.2031C44.6328 19.8698 44.5651 19.5807 44.4297 19.3359C44.2995 19.0859 44.1016 18.8932 43.8359 18.7578C43.5703 18.6224 43.2422 18.5547 42.8516 18.5547C42.487 18.5547 42.1667 18.6172 41.8906 18.7422C41.6198 18.8672 41.4062 19.0312 41.25 19.2344C41.099 19.4375 41.0234 19.6562 41.0234 19.8906H39.5781C39.5781 19.5885 39.6562 19.2891 39.8125 18.9922C39.9688 18.6953 40.1927 18.4271 40.4844 18.1875C40.7812 17.9427 41.1354 17.75 41.5469 17.6094C41.9635 17.4635 42.4271 17.3906 42.9375 17.3906C43.5521 17.3906 44.0938 17.4948 44.5625 17.7031C45.0365 17.9115 45.4062 18.2266 45.6719 18.6484C45.9427 19.0651 46.0781 19.5885 46.0781 20.2188V24.1562C46.0781 24.4375 46.1016 24.737 46.1484 25.0547C46.2005 25.3724 46.276 25.6458 46.375 25.875V26H44.8672C44.7943 25.8333 44.737 25.612 44.6953 25.3359C44.6536 25.0547 44.6328 24.7943 44.6328 24.5547ZM44.8828 20.875L44.8984 21.8906H43.4375C43.026 21.8906 42.6589 21.9245 42.3359 21.9922C42.013 22.0547 41.7422 22.151 41.5234 22.2812C41.3047 22.4115 41.138 22.5755 41.0234 22.7734C40.9089 22.9661 40.8516 23.1927 40.8516 23.4531C40.8516 23.7188 40.9115 23.9609 41.0312 24.1797C41.151 24.3984 41.3307 24.5729 41.5703 24.7031C41.8151 24.8281 42.1146 24.8906 42.4688 24.8906C42.9115 24.8906 43.3021 24.7969 43.6406 24.6094C43.9792 24.4219 44.2474 24.1927 44.4453 23.9219C44.6484 23.651 44.7578 23.388 44.7734 23.1328L45.3906 23.8281C45.3542 24.0469 45.2552 24.2891 45.0938 24.5547C44.9323 24.8203 44.7161 25.0755 44.4453 25.3203C44.1797 25.5599 43.862 25.7604 43.4922 25.9219C43.1276 26.0781 42.7161 26.1562 42.2578 26.1562C41.6849 26.1562 41.1823 26.0443 40.75 25.8203C40.3229 25.5964 39.9896 25.2969 39.75 24.9219C39.5156 24.5417 39.3984 24.1172 39.3984 23.6484C39.3984 23.1953 39.487 22.7969 39.6641 22.4531C39.8411 22.1042 40.0964 21.8151 40.4297 21.5859C40.763 21.3516 41.1641 21.1745 41.6328 21.0547C42.1016 20.9349 42.625 20.875 43.2031 20.875H44.8828ZM51.7344 24.9688C52.0781 24.9688 52.3958 24.8984 52.6875 24.7578C52.9792 24.6172 53.2188 24.4245 53.4062 24.1797C53.5938 23.9297 53.7005 23.6458 53.7266 23.3281H55.1016C55.0755 23.8281 54.9062 24.2943 54.5938 24.7266C54.2865 25.1536 53.8828 25.5 53.3828 25.7656C52.8828 26.026 52.3333 26.1562 51.7344 26.1562C51.099 26.1562 50.5443 26.0443 50.0703 25.8203C49.6016 25.5964 49.2109 25.2891 48.8984 24.8984C48.5911 24.5078 48.3594 24.0599 48.2031 23.5547C48.0521 23.0443 47.9766 22.5052 47.9766 21.9375V21.6094C47.9766 21.0417 48.0521 20.5052 48.2031 20C48.3594 19.4896 48.5911 19.0391 48.8984 18.6484C49.2109 18.2578 49.6016 17.9505 50.0703 17.7266C50.5443 17.5026 51.099 17.3906 51.7344 17.3906C52.3958 17.3906 52.974 17.526 53.4688 17.7969C53.9635 18.0625 54.3516 18.4271 54.6328 18.8906C54.9193 19.349 55.0755 19.8698 55.1016 20.4531H53.7266C53.7005 20.1042 53.6016 19.7891 53.4297 19.5078C53.263 19.2266 53.0339 19.0026 52.7422 18.8359C52.4557 18.6641 52.1198 18.5781 51.7344 18.5781C51.2917 18.5781 50.9193 18.6667 50.6172 18.8438C50.3203 19.0156 50.0833 19.25 49.9062 19.5469C49.7344 19.8385 49.6094 20.1641 49.5312 20.5234C49.4583 20.8776 49.4219 21.2396 49.4219 21.6094V21.9375C49.4219 22.3073 49.4583 22.6719 49.5312 23.0312C49.6042 23.3906 49.7266 23.7161 49.8984 24.0078C50.0755 24.2995 50.3125 24.5339 50.6094 24.7109C50.9115 24.8828 51.2865 24.9688 51.7344 24.9688ZM60.2656 17.5469V18.6562H55.6953V17.5469H60.2656ZM57.2422 15.4922H58.6875V23.9062C58.6875 24.1927 58.7318 24.4089 58.8203 24.5547C58.9089 24.7005 59.0234 24.7969 59.1641 24.8438C59.3047 24.8906 59.4557 24.9141 59.6172 24.9141C59.737 24.9141 59.862 24.9036 59.9922 24.8828C60.1276 24.8568 60.2292 24.8359 60.2969 24.8203L60.3047 26C60.1901 26.0365 60.0391 26.0703 59.8516 26.1016C59.6693 26.138 59.4479 26.1562 59.1875 26.1562C58.8333 26.1562 58.5078 26.0859 58.2109 25.9453C57.9141 25.8047 57.6771 25.5703 57.5 25.2422C57.3281 24.9089 57.2422 24.4609 57.2422 23.8984V15.4922ZM70.9141 24.5547V20.2031C70.9141 19.8698 70.8464 19.5807 70.7109 19.3359C70.5807 19.0859 70.3828 18.8932 70.1172 18.7578C69.8516 18.6224 69.5234 18.5547 69.1328 18.5547C68.7682 18.5547 68.4479 18.6172 68.1719 18.7422C67.901 18.8672 67.6875 19.0312 67.5312 19.2344C67.3802 19.4375 67.3047 19.6562 67.3047 19.8906H65.8594C65.8594 19.5885 65.9375 19.2891 66.0938 18.9922C66.25 18.6953 66.474 18.4271 66.7656 18.1875C67.0625 17.9427 67.4167 17.75 67.8281 17.6094C68.2448 17.4635 68.7083 17.3906 69.2188 17.3906C69.8333 17.3906 70.375 17.4948 70.8438 17.7031C71.3177 17.9115 71.6875 18.2266 71.9531 18.6484C72.224 19.0651 72.3594 19.5885 72.3594 20.2188V24.1562C72.3594 24.4375 72.3828 24.737 72.4297 25.0547C72.4818 25.3724 72.5573 25.6458 72.6562 25.875V26H71.1484C71.0755 25.8333 71.0182 25.612 70.9766 25.3359C70.9349 25.0547 70.9141 24.7943 70.9141 24.5547ZM71.1641 20.875L71.1797 21.8906H69.7188C69.3073 21.8906 68.9401 21.9245 68.6172 21.9922C68.2943 22.0547 68.0234 22.151 67.8047 22.2812C67.5859 22.4115 67.4193 22.5755 67.3047 22.7734C67.1901 22.9661 67.1328 23.1927 67.1328 23.4531C67.1328 23.7188 67.1927 23.9609 67.3125 24.1797C67.4323 24.3984 67.612 24.5729 67.8516 24.7031C68.0964 24.8281 68.3958 24.8906 68.75 24.8906C69.1927 24.8906 69.5833 24.7969 69.9219 24.6094C70.2604 24.4219 70.5286 24.1927 70.7266 23.9219C70.9297 23.651 71.0391 23.388 71.0547 23.1328L71.6719 23.8281C71.6354 24.0469 71.5365 24.2891 71.375 24.5547C71.2135 24.8203 70.9974 25.0755 70.7266 25.3203C70.4609 25.5599 70.1432 25.7604 69.7734 25.9219C69.4089 26.0781 68.9974 26.1562 68.5391 26.1562C67.9661 26.1562 67.4635 26.0443 67.0312 25.8203C66.6042 25.5964 66.2708 25.2969 66.0312 24.9219C65.7969 24.5417 65.6797 24.1172 65.6797 23.6484C65.6797 23.1953 65.7682 22.7969 65.9453 22.4531C66.1224 22.1042 66.3776 21.8151 66.7109 21.5859C67.0443 21.3516 67.4453 21.1745 67.9141 21.0547C68.3828 20.9349 68.9062 20.875 69.4844 20.875H71.1641ZM80.1094 17.5469H81.4219V25.8203C81.4219 26.5651 81.2708 27.2005 80.9688 27.7266C80.6667 28.2526 80.2448 28.651 79.7031 28.9219C79.1667 29.1979 78.5469 29.3359 77.8438 29.3359C77.5521 29.3359 77.2083 29.2891 76.8125 29.1953C76.4219 29.1068 76.0365 28.9531 75.6562 28.7344C75.2812 28.5208 74.9661 28.2318 74.7109 27.8672L75.4688 27.0078C75.8229 27.4349 76.1927 27.7318 76.5781 27.8984C76.9688 28.0651 77.3542 28.1484 77.7344 28.1484C78.1927 28.1484 78.5885 28.0625 78.9219 27.8906C79.2552 27.7188 79.513 27.4635 79.6953 27.125C79.8828 26.7917 79.9766 26.3802 79.9766 25.8906V19.4062L80.1094 17.5469ZM74.2891 21.8672V21.7031C74.2891 21.0573 74.3646 20.4714 74.5156 19.9453C74.6719 19.4141 74.8932 18.9583 75.1797 18.5781C75.4714 18.1979 75.8229 17.9062 76.2344 17.7031C76.6458 17.4948 77.1094 17.3906 77.625 17.3906C78.1562 17.3906 78.6198 17.4844 79.0156 17.6719C79.4167 17.8542 79.7552 18.1224 80.0312 18.4766C80.3125 18.8255 80.5339 19.2474 80.6953 19.7422C80.8568 20.237 80.9688 20.7969 81.0312 21.4219V22.1406C80.974 22.7604 80.862 23.3177 80.6953 23.8125C80.5339 24.3073 80.3125 24.7292 80.0312 25.0781C79.7552 25.4271 79.4167 25.6953 79.0156 25.8828C78.6146 26.0651 78.1458 26.1562 77.6094 26.1562C77.1042 26.1562 76.6458 26.0495 76.2344 25.8359C75.8281 25.6224 75.4792 25.3229 75.1875 24.9375C74.8958 24.5521 74.6719 24.099 74.5156 23.5781C74.3646 23.0521 74.2891 22.4818 74.2891 21.8672ZM75.7344 21.7031V21.8672C75.7344 22.2891 75.776 22.6849 75.8594 23.0547C75.9479 23.4245 76.0807 23.75 76.2578 24.0312C76.4401 24.3125 76.6719 24.5339 76.9531 24.6953C77.2344 24.8516 77.5703 24.9297 77.9609 24.9297C78.4401 24.9297 78.8359 24.8281 79.1484 24.625C79.4609 24.4219 79.7083 24.1536 79.8906 23.8203C80.0781 23.487 80.224 23.125 80.3281 22.7344V20.8516C80.2708 20.5651 80.1823 20.2891 80.0625 20.0234C79.9479 19.7526 79.7969 19.513 79.6094 19.3047C79.4271 19.0911 79.2005 18.9219 78.9297 18.7969C78.6589 18.6719 78.3411 18.6094 77.9766 18.6094C77.5807 18.6094 77.2396 18.6927 76.9531 18.8594C76.6719 19.0208 76.4401 19.2448 76.2578 19.5312C76.0807 19.8125 75.9479 20.1406 75.8594 20.5156C75.776 20.8854 75.7344 21.2812 75.7344 21.7031ZM87.125 26.1562C86.5365 26.1562 86.0026 26.0573 85.5234 25.8594C85.0495 25.6562 84.6406 25.3724 84.2969 25.0078C83.9583 24.6432 83.6979 24.2109 83.5156 23.7109C83.3333 23.2109 83.2422 22.6641 83.2422 22.0703V21.7422C83.2422 21.0547 83.3438 20.4427 83.5469 19.9062C83.75 19.3646 84.026 18.9062 84.375 18.5312C84.724 18.1562 85.1198 17.8724 85.5625 17.6797C86.0052 17.487 86.4635 17.3906 86.9375 17.3906C87.5417 17.3906 88.0625 17.4948 88.5 17.7031C88.9427 17.9115 89.3047 18.2031 89.5859 18.5781C89.8672 18.9479 90.0755 19.3854 90.2109 19.8906C90.3464 20.3906 90.4141 20.9375 90.4141 21.5312V22.1797H84.1016V21H88.9688V20.8906C88.9479 20.5156 88.8698 20.151 88.7344 19.7969C88.6042 19.4427 88.3958 19.151 88.1094 18.9219C87.8229 18.6927 87.4323 18.5781 86.9375 18.5781C86.6094 18.5781 86.3073 18.6484 86.0312 18.7891C85.7552 18.9245 85.5182 19.1276 85.3203 19.3984C85.1224 19.6693 84.9688 20 84.8594 20.3906C84.75 20.7812 84.6953 21.2318 84.6953 21.7422V22.0703C84.6953 22.4714 84.75 22.849 84.8594 23.2031C84.974 23.5521 85.138 23.8594 85.3516 24.125C85.5703 24.3906 85.8333 24.599 86.1406 24.75C86.4531 24.901 86.8073 24.9766 87.2031 24.9766C87.7135 24.9766 88.1458 24.8724 88.5 24.6641C88.8542 24.4557 89.1641 24.1771 89.4297 23.8281L90.3047 24.5234C90.1224 24.7995 89.8906 25.0625 89.6094 25.3125C89.3281 25.5625 88.9818 25.7656 88.5703 25.9219C88.1641 26.0781 87.6823 26.1562 87.125 26.1562ZM93.5469 19.3516V26H92.1016V17.5469H93.4688L93.5469 19.3516ZM93.2031 21.4531L92.6016 21.4297C92.6068 20.8516 92.6927 20.3177 92.8594 19.8281C93.026 19.3333 93.2604 18.9036 93.5625 18.5391C93.8646 18.1745 94.224 17.8932 94.6406 17.6953C95.0625 17.4922 95.5286 17.3906 96.0391 17.3906C96.4557 17.3906 96.8307 17.4479 97.1641 17.5625C97.4974 17.6719 97.7812 17.849 98.0156 18.0938C98.2552 18.3385 98.4375 18.6562 98.5625 19.0469C98.6875 19.4323 98.75 19.9036 98.75 20.4609V26H97.2969V20.4453C97.2969 20.0026 97.2318 19.6484 97.1016 19.3828C96.9714 19.112 96.7812 18.9167 96.5312 18.7969C96.2812 18.6719 95.974 18.6094 95.6094 18.6094C95.25 18.6094 94.9219 18.6849 94.625 18.8359C94.3333 18.987 94.0807 19.1953 93.8672 19.4609C93.6589 19.7266 93.4948 20.0312 93.375 20.375C93.2604 20.7135 93.2031 21.0729 93.2031 21.4531ZM104.484 17.5469V18.6562H99.9141V17.5469H104.484ZM101.461 15.4922H102.906V23.9062C102.906 24.1927 102.951 24.4089 103.039 24.5547C103.128 24.7005 103.242 24.7969 103.383 24.8438C103.523 24.8906 103.674 24.9141 103.836 24.9141C103.956 24.9141 104.081 24.9036 104.211 24.8828C104.346 24.8568 104.448 24.8359 104.516 24.8203L104.523 26C104.409 26.0365 104.258 26.0703 104.07 26.1016C103.888 26.138 103.667 26.1562 103.406 26.1562C103.052 26.1562 102.727 26.0859 102.43 25.9453C102.133 25.8047 101.896 25.5703 101.719 25.2422C101.547 24.9089 101.461 24.4609 101.461 23.8984V15.4922Z" fill="#2A2C1F"/>
<path d="M120.656 17L124.656 21L120.656 25L119.719 24.0625L122.781 21L119.719 17.9375L120.656 17Z" fill="#2A2C1F"/>
</svg>
